# xmcd
# Track frame offsets:
# 150
# 17228
# 35407
# 51195
# 71129
# 84192
# 98585
# 109507
# 118320
# 133022
# 146028
# 158793
# 171547
# 191106
# 209034
# 225055
# 251210
# 264827
# 282962
#
# Disc length: 4024 seconds
# Revision: 0
# Processed by: cddbd v1.5.1PL0 Copyright (c) Steve Scherf et al.
# Submitted via: VisiTrax 2.9.10.228 - For more info visit www.synapsa.com
#
DISCID=150fb613
DTITLE=Solomon Burke - The Collection
DYEAR=2004
DGENRE=
TTITLE0=All for the Love of Sunshine
TTITLE1=Looking out my Backdoor
TTITLE2=The Electronic Magnetism
TTITLE3=J.C. I Know who you are
TTITLE4=The Night They Drove old Dixie Down
TTITLE5=Love's Street and Fool's Road
TTITLE6=We're Almost Home
TTITLE7=Fight Back
TTITLE8=Get up and do Something for Yourself
TTITLE9=Misty
TTITLE10=Shambala
TTITLE11=Georgia up North
TTITLE12=Here Comes the Train
TTITLE13=Midnight and you
TTITLE14=I Have a Dream
TTITLE15=You and Your Baby Blues
TTITLE16=I'm Leaving on That Late Late Train
TTITLE17=Let me Wrap my Arms Around you
TTITLE18=Everlasting  Love
EXTD=
EXTT0=
EXTT1=
EXTT2=
EXTT3=
EXTT4=
EXTT5=
EXTT6=
EXTT7=
EXTT8=
EXTT9=
EXTT10=
EXTT11=
EXTT12=
EXTT13=
EXTT14=
EXTT15=
EXTT16=
EXTT17=
EXTT18=
PLAYORDER=
